<svg id="Capa_1" enable-background="new 0 0 512.001 512.001" height="512" viewBox="0 0 512.001 512.001" width="512" xmlns="http://www.w3.org/2000/svg"><path d="m69.04 443.077-60.573 6.512 62.26-62.279 60.573-6.512z" fill="#e8834d"/><path d="m40.459 446.15 28.581-3.073 62.26-62.279-28.574 3.072z" fill="#d66e41"/><path d="m69.04 443.077-6.51 60.592 62.26-62.28 6.51-60.591z" fill="#e8834d"/><path d="m65.602 475.079-3.072 28.59 62.26-62.28 3.07-28.577z" fill="#d66e41"/><path d="m504.486 7.515-1.358 29.092-5.343 18.465-9.082 9.214-6.458 14.394s-29.169 19.604-48.834-.066c-19.665-19.671-.066-48.849-.066-48.849l14.389-6.46 9.211-9.085 18.459-5.345z" fill="#a0a0a0"/><path d="m446.163 65.86c-12.754-12.758-8.992-29.507-4.772-39.709l-8.047 3.613s-19.598 29.178.066 48.849c19.665 19.671 48.834.067 48.834.067l3.609-8.043c-10.2 4.219-26.939 7.978-39.69-4.777z" fill="#8e8e8e"/><path d="m321.036 189.938c97.397 97.568 44.063 312.632 87.331 314.535 47.401 2.084 69.53-283.085-24.621-377.401l.54.541c-94.15-94.315-378.838-72.13-376.758-24.646 1.899 43.344 216.65-10.057 314.048 87.511z" fill="#f4e9d3"/><path d="m423.612 489.227c-43.228-1.901 9.964-216.563-87.062-314.259-97.522-97.202-311.879-43.942-313.776-87.246-.052-1.172.079-2.328.37-3.468-10.225 5.527-15.916 11.856-15.616 18.713 1.897 43.304 216.254-9.956 313.777 87.246 97.026 97.696 43.834 312.358 87.062 314.259 6.837.301 13.146-5.385 18.658-15.602-1.122.284-2.26.408-3.413.357z" fill="#e5d6be"/><path d="m57.485 144.289c-2.034-2.035-3.372-4.784-3.589-7.88l-5.365-76.41c-.479-6.818 4.659-12.733 11.475-13.213 6.816-.479 12.73 4.661 13.208 11.478l5.365 76.41c.479 6.818-4.659 12.733-11.475 13.213-3.722.262-7.174-1.152-9.619-3.598z" fill="#98db7c"/><path d="m68.692 141.673c-2.034-2.035-3.372-4.784-3.589-7.88l-5.365-76.41c-.284-4.042 1.415-7.756 4.258-10.219-1.27-.332-2.61-.476-3.992-.379-6.816.479-11.953 6.395-11.474 13.213l5.365 76.41c.218 3.095 1.555 5.845 3.59 7.88 2.445 2.446 5.898 3.86 9.618 3.598 2.772-.195 5.257-1.299 7.209-2.987-2.149-.561-4.083-1.689-5.62-3.226z" fill="#82d361"/><path d="m82.051 140.639c-2.034-2.035-3.372-4.784-3.59-7.88l-5.365-76.41c-.479-6.818 4.659-12.733 11.475-13.213 6.816-.479 12.729 4.661 13.208 11.478l5.365 76.41c.479 6.818-4.659 12.733-11.475 13.213-3.721.262-7.173-1.152-9.618-3.598z" fill="#98db7c"/><path d="m93.925 138.561c-2.034-2.035-3.372-4.784-3.59-7.88l-5.365-76.41c-.293-4.18 1.53-8.014 4.55-10.47-1.542-.541-3.216-.786-4.95-.664-6.816.479-11.954 6.395-11.475 13.213l5.365 76.41c.218 3.095 1.555 5.845 3.59 7.88 2.445 2.446 5.898 3.86 9.618 3.598 2.642-.186 5.026-1.195 6.934-2.75-1.769-.62-3.369-1.62-4.677-2.927z" fill="#82d361"/><path d="m367.765 454.57c2.035 2.034 4.784 3.372 7.88 3.589l76.41 5.365c6.818.479 12.733-4.659 13.213-11.475.479-6.816-4.661-12.73-11.478-13.208l-76.41-5.365c-6.818-.479-12.733 4.659-13.213 11.475-.261 3.721 1.152 7.174 3.598 9.619z" fill="#98db7c"/><path d="m370.381 443.362c2.035 2.034 4.784 3.372 7.88 3.589l76.41 5.365c4.042.284 7.756-1.415 10.219-4.259.332 1.27.476 2.61.379 3.992-.479 6.816-6.394 11.953-13.213 11.474l-76.41-5.365c-3.095-.218-5.845-1.555-7.88-3.59-2.446-2.445-3.859-5.898-3.598-9.618.195-2.772 1.299-5.257 2.987-7.208.562 2.149 1.689 4.084 3.226 5.62z" fill="#82d361"/><path d="m371.416 430.004c2.035 2.034 4.784 3.372 7.88 3.59l76.41 5.365c6.818.479 12.733-4.659 13.213-11.475.479-6.816-4.661-12.729-11.478-13.208l-76.41-5.365c-6.818-.479-12.733 4.659-13.213 11.475-.262 3.72 1.151 7.173 3.598 9.618z" fill="#98db7c"/><path d="m373.494 418.129c2.035 2.034 4.784 3.372 7.88 3.59l76.41 5.365c4.18.293 8.014-1.53 10.47-4.55.541 1.543.786 3.216.664 4.95-.479 6.816-6.395 11.954-13.213 11.475l-76.41-5.365c-3.095-.218-5.845-1.555-7.88-3.59-2.446-2.445-3.859-5.898-3.598-9.618.186-2.642 1.195-5.026 2.75-6.934.62 1.769 1.619 3.37 2.927 4.677z" fill="#82d361"/><path d="m509.799 2.201c-1.494-1.494-3.547-2.286-5.664-2.193l-29.082 1.359c-.589.028-1.173.124-1.74.289l-18.459 5.344c-1.202.347-2.297.99-3.187 1.868l-8.247 8.134-13.154 5.906c-1.283.575-2.378 1.499-3.16 2.665-7.153 10.648-15.965 33.854-3.967 52.249l-39.175 39.185c-35.706-31.871-89.629-47.029-129.536-54.162-46.963-8.393-100.772-10.456-148.946-5.809-.12-1.713-.175-3.451-.482-5.144-.565-3.114-1.88-6.07-3.819-8.571-4.054-5.228-10.54-8.132-17.137-7.681-5.229.368-9.834 2.751-13.148 6.318-3.424-2.009-7.365-2.949-11.418-2.668-10.94.77-19.213 10.296-18.444 21.235l.577 8.217c-28.227 8.701-42.213 20.312-41.591 34.554.396 9.044 6.3 15.775 17.548 20.005 6.794 2.555 15.674 4.356 28.275 5.707l.557 7.928c.434 6.177 3.816 11.918 9.009 15.29 5.35 3.474 12.208 4.162 18.141 1.81l136.694 136.736-82.868 82.889-57.452 6.177c-1.706.183-3.298.945-4.511 2.158l-62.26 62.28c-2.303 2.303-2.852 5.935-1.334 8.816 1.419 2.694 4.423 4.298 7.452 3.968l51.302-5.516-5.514 51.32c-.315 2.93 1.167 5.845 3.719 7.314 2.911 1.676 6.69 1.18 9.066-1.198l62.26-62.28c1.213-1.213 1.975-2.805 2.158-4.51l6.28-58.442 82.328-82.349 137.12 137.165c-.723 1.852-1.175 3.821-1.319 5.861-.404 5.749 1.704 11.384 5.782 15.46 3.386 3.385 7.885 5.434 12.665 5.77l7.252.509c1.347 12.595 3.144 21.473 5.693 28.267 4.221 11.247 10.941 17.152 19.974 17.55.304.013.606.02.908.02 13.8 0 25.08-13.988 33.577-41.613l9.007.632c.473.033.942.05 1.409.05 10.338-.001 19.091-8.027 19.827-18.494.283-4.041-.654-7.978-2.657-11.4 3.569-3.315 5.94-7.936 6.307-13.166.372-5.299-1.342-10.427-4.828-14.436-3.484-4.009-8.322-6.422-13.62-6.793l-3.753-.263c3.216-33.514 3.237-70.791.007-105.908-.382-4.133-4.044-7.174-8.171-6.796-4.133.381-7.175 4.039-6.796 8.171 3.159 34.346 3.131 70.786-.034 103.48l-45.612-3.203c-3.991-77.64-13.644-163.489-66.837-217.205-.035-.036-.065-.075-.1-.111-.02-.02-.042-.036-.062-.056-29.954-29.853-73.197-49.134-132.199-58.945-4.102-.687-7.965 2.088-8.646 6.18-.681 4.094 2.086 7.965 6.18 8.646 52.29 8.695 91.207 24.968 118.639 49.638l-89.714 89.736-128.404-128.444c10.004-.84 17.704-9.006 18.185-18.823 16.61.86 34.137 1.982 51.848 3.899.275.03.548.045.818.045 3.788 0 7.045-2.855 7.462-6.706.447-4.126-2.535-7.834-6.661-8.28-18.666-2.022-37.042-3.173-54.37-4.055l-3.212-45.747c46.954-4.568 99.449-2.579 145.249 5.605 57.128 10.21 101.018 29.24 126.892 54.997 19.36 19.515 44.969 59.61 57.019 139.803.56 3.726 3.765 6.399 7.422 6.399.372 0 .749-.027 1.126-.084 4.105-.617 6.931-4.444 6.315-8.548-6.653-44.272-21.763-103.906-55.992-142.548l39.11-39.12c6.703 4.542 14.071 6.274 21.257 6.274 12.615 0 24.656-5.295 31.503-9.897 1.166-.784 2.089-1.879 2.664-3.16l5.904-13.159 8.132-8.251c.877-.89 1.519-1.985 1.866-3.186l5.343-18.465c.164-.566.261-1.15.289-1.739l1.358-29.092c.099-2.111-.697-4.166-2.193-5.662zm-494.764 100.438c-.209-4.775 8.357-12.005 27.66-18.454l2.076 29.564c-24.035-2.907-29.58-7.55-29.736-11.11zm51.543 37.753c-2.647.188-5.001-1.873-5.187-4.509l-5.365-76.412c-.174-2.483 1.637-4.758 4.096-5.141 3.147-.49 5.298 1.92 5.637 4.816l5.204 74.138c.118 1.691.302 3.453-.686 4.942-.822 1.241-2.212 2.061-3.699 2.166zm-1.466 295.549-36.274 3.9 45.329-45.343 36.278-3.9zm52.489 2.01-45.324 45.338 3.952-36.774 45.324-45.339zm291.267 59.018c-.057 0-.115-.001-.17-.004-3.546-.156-8.171-5.699-11.07-29.73l29.457 2.068c-6.356 19.077-13.464 27.666-18.217 27.666zm51.376-73.537c2.789 3.209.205 8.331-4.012 8.029l-17.305-1.214c-4.163-.296-7.732 2.83-8.022 6.97-.291 4.141 2.83 7.732 6.97 8.022l15.037 1.055c2.893.338 5.306 2.494 4.813 5.636-.384 2.453-2.666 4.264-5.142 4.097l-76.411-5.365c-3.006-.212-5.102-3.184-4.351-6.092.854-3.306 4.059-3.683 6.949-3.481l29.068 2.041c4.142.3 7.732-2.829 8.023-6.97.291-4.14-2.83-7.732-6.97-8.022l-29.068-2.041c-2.581-.182-4.617-2.43-4.515-5.019.106-2.707 2.49-4.85 5.196-4.672l76.411 5.365c1.294.092 2.477.682 3.329 1.661zm-139.054-222.377c44.723 50.014 53.569 128.604 57.327 200.403-9.549.791-17.384 8.391-18.172 18.205l-128.85-128.89zm-230.047-64.314c-2.651.188-4.999-1.86-5.186-4.509l-5.364-76.411c-.171-2.43 1.565-4.679 3.962-5.121 2.814-.519 5.528 1.59 5.728 4.44l5.365 76.412c.188 2.674-1.834 5.001-4.505 5.189zm404.52-101.371-4.568 15.783-7.745 7.858c-.628.637-1.138 1.382-1.504 2.199l-5.505 12.269c-5.77 3.295-24.849 12.591-37.617-.179-12.845-12.848-3.539-31.826-.192-37.628l12.278-5.513c.817-.366 1.562-.876 2.2-1.505l7.854-7.748 15.777-4.568 19.954-.932z"/></svg>