<svg id="Capa_1" enable-background="new 0 0 512 512" height="512" viewBox="0 0 512 512" width="512" xmlns="http://www.w3.org/2000/svg"><g fill="#994e37"><path d="m78.855 138.604v20.362l5.72 7.446h104.945c-.702-4.789-1.086-9.854-1.086-15.101 0-4.381.269-8.634.764-12.708h-110.343z"/><path d="m48.611 164.104v-25.5h-27.192c-7.679 0-13.904 6.225-13.904 13.904s6.225 13.904 13.904 13.904h27.375c-.118-.76-.183-1.53-.183-2.308z"/><path d="m432.283 166.413v-27.809h-111.51c.496 4.074.764 8.327.764 12.708 0 5.247-.383 10.312-1.086 15.101z"/><path d="m490.581 138.604h-28.053v27.809h28.053c7.679 0 13.904-6.225 13.904-13.904 0-7.68-6.225-13.905-13.904-13.905z"/></g><path d="m432.283 152.509h-110.767c-.054 4.818-.415 9.482-1.064 13.904h111.831z" fill="#844131"/><path d="m502.61 145.556c-2.405 4.152-6.885 6.952-12.029 6.952h-28.053v13.904h28.053c7.679 0 13.904-6.225 13.904-13.904 0-2.535-.689-4.905-1.875-6.952z" fill="#844131"/><path d="m78.855 158.967 5.72 7.446h104.945c-.649-4.422-1.01-9.086-1.064-13.904h-109.6v6.458z" fill="#844131"/><path d="m48.611 164.104v-11.596h-27.192c-5.143 0-9.624-2.8-12.029-6.952-1.186 2.047-1.875 4.417-1.875 6.952 0 7.679 6.225 13.904 13.904 13.904h27.375c-.118-.76-.183-1.53-.183-2.308z" fill="#844131"/><path d="m257.928 448.715s-97.17 4.846-78.484-103.538l20.928 10.465s8.223-41.857 61.05-76.99c0 0 53.806 35.578 53.314 85.048l18.687-7.31c0-.001 18.714 92.325-75.495 92.325z" fill="#ffe55a"/><path d="m257.928 430.68s-74.9 3.725-80.527-68.727c-6.28 91.072 80.527 86.762 80.527 86.762 75.958 0 78.507-60.01 76.644-83.264-2.247 27.241-16.213 65.229-76.644 65.229z" fill="#ffd91d"/><path d="m295.037 98.01h-80.103c-14.636 0-26.5 23.864-26.5 53.302s11.865 53.301 26.5 53.301h80.103c14.636 0 26.5-23.864 26.5-53.301s-11.864-53.302-26.5-53.302z" fill="#ffeca1"/><path d="m313.326 186.578h-116.68c-.536 0-1.067-.026-1.598-.056 4.856 11.087 11.963 18.091 19.887 18.091h80.103c7.924 0 15.03-7.004 19.887-18.091-.532.03-1.063.056-1.599.056z" fill="#ffdf85"/><path d="m163.013 138.604v-24.05c0-8.352-6.771-15.123-15.123-15.123s-15.122 6.771-15.122 15.123v24.05z" fill="#e8834d"/><path d="m132.768 166.413v13.555l-24.301 17.551-29.612-38.552v-20.362-60.23c0-8.352-6.77-15.122-15.122-15.122s-15.123 6.771-15.123 15.122v85.73c0 3.332 1.1 6.57 3.13 9.212l38.556 50.196v225.203h30.245v-222.61l36.204-26.147c3.937-2.843 6.269-7.403 6.269-12.259v-21.287z" fill="#e8834d"/><path d="m63.367 78.374v80.592l27.653 36.002c4.169 5.428 11.899 6.558 17.448 2.551l-29.612-38.553v-80.154c0-8.017-6.058-14.964-14.055-15.523-3.238-.226-6.262.588-8.811 2.114 4.413 2.641 7.377 7.454 7.377 12.971z" fill="#d66e41"/><path d="m147.524 114.554v24.05h15.489v-23.611c0-8.018-6.058-14.965-14.056-15.524-3.238-.226-6.261.588-8.811 2.113 4.414 2.642 7.378 7.454 7.378 12.972z" fill="#d66e41"/><path d="m147.524 166.413v13.702c0 4.856-2.332 9.416-6.268 12.259l-34.128 24.648c-1.304.942-2.076 2.453-2.076 4.061v227.633h15.489v-222.61l36.204-26.147c3.937-2.843 6.268-7.403 6.268-12.259v-21.287z" fill="#d66e41"/><path d="m378.37 138.604v-60.23c0-8.352-6.771-15.122-15.122-15.122-8.352 0-15.122 6.771-15.122 15.122v60.23z" fill="#e8834d"/><path d="m447.405 99.432c-8.352 0-15.122 6.771-15.122 15.123v24.05 27.809 13.555l-24.301 17.551-23.892-31.106h-35.781c.386 2.5 1.39 4.877 2.946 6.903l38.556 50.196v225.203h30.245v-222.61l36.204-26.147c3.937-2.843 6.268-7.403 6.268-12.259v-73.146c0-8.352-6.771-15.122-15.123-15.122z" fill="#e8834d"/><path d="m448.472 99.469c-3.237-.226-6.261.588-8.811 2.114 4.414 2.641 7.378 7.454 7.378 12.972v65.56c0 4.856-2.332 9.416-6.268 12.259l-34.127 24.648c-1.304.942-2.077 2.453-2.077 4.061v227.633h15.489v-222.61l36.204-26.147c3.936-2.843 6.268-7.403 6.268-12.259v-72.707c0-8.018-6.058-14.965-14.056-15.524z" fill="#d66e41"/><path d="m362.881 78.374v60.23h15.489v-59.792c0-8.017-6.058-14.964-14.055-15.523-3.238-.227-6.262.588-8.811 2.113 4.413 2.642 7.377 7.455 7.377 12.972z" fill="#d66e41"/><path d="m368.601 166.413 21.934 28.556c4.169 5.428 11.899 6.558 17.448 2.551l-23.893-31.107z" fill="#d66e41"/><path d="m254.309 448.715c15.415 0 32.914-11.217 32.914-31.658 0-20.442-31.226-42.336-31.226-42.336s-31.226 21.894-31.226 42.336 17.499 31.658 32.914 31.658" fill="#ff4755"/><path d="m257.685 448.715c-.56 0-1.123-.019-1.688-.049-.565.03-1.128.049-1.688.049z" fill="#fc2b3a"/><path d="m285.545 427.448c-7.912 2.063-17.048 3.232-27.616 3.232 0 0-14.95.743-31.993-4.891 3.972 14.241 17.466 22.219 30.062 22.877 12.097-.632 25.025-8.017 29.547-21.218z" fill="#fc2b3a"/><path d="m228.618 167.957h-10.51c-4.15 0-7.515 3.364-7.515 7.515s3.365 7.515 7.515 7.515h10.51c4.15 0 7.515-3.364 7.515-7.515s-3.364-7.515-7.515-7.515z"/><path d="m282.92 122.031h-10.51c-4.15 0-7.515 3.364-7.515 7.515s3.365 7.515 7.515 7.515h10.51c4.15 0 7.515-3.364 7.515-7.515s-3.365-7.515-7.515-7.515z"/><path d="m277.665 167.957c-4.15 0-7.515 3.364-7.515 7.515s3.365 7.515 7.515 7.515h10.51c4.15 0 7.515-3.364 7.515-7.515s-3.365-7.515-7.515-7.515z"/><path d="m241.257 156.259c0 4.151 3.365 7.515 7.515 7.515h10.51c4.15 0 7.515-3.364 7.515-7.515s-3.365-7.515-7.515-7.515h-10.51c-4.151 0-7.515 3.364-7.515 7.515z"/><path d="m228.618 122.031h-10.51c-4.15 0-7.515 3.364-7.515 7.515s3.365 7.515 7.515 7.515h10.51c4.15 0 7.515-3.364 7.515-7.515s-3.364-7.515-7.515-7.515z"/><path d="m490.581 131.089h-20.538v-16.535c0-12.482-10.155-22.637-22.638-22.637-12.482 0-22.637 10.155-22.637 22.637v16.535h-38.883v-52.715c0-12.482-10.155-22.637-22.637-22.637s-22.637 10.155-22.637 22.637v52.715h-13.351c-4.458-24.122-16.835-40.594-32.222-40.594h-20.726c-4.15 0-7.515 3.364-7.515 7.515s3.365 7.515 7.515 7.515h20.726c7.928 0 18.985 17.419 18.985 45.787s-11.058 45.787-18.985 45.787h-80.103c-7.928 0-18.986-17.419-18.986-45.787s11.058-45.787 18.986-45.787h29.318c4.15 0 7.515-3.364 7.515-7.515s-3.365-7.515-7.515-7.515h-29.318c-15.388 0-27.764 16.471-32.223 40.594h-12.184v-16.535c0-12.482-10.155-22.637-22.637-22.637s-22.637 10.155-22.637 22.637v16.535h-38.884v-52.715c0-12.482-10.155-22.637-22.637-22.637s-22.637 10.155-22.637 22.637v52.715h-19.677c-11.81 0-21.419 9.609-21.419 21.419 0 11.811 9.609 21.42 21.419 21.42h21.946c.671 1.395 1.468 2.732 2.416 3.966l37.001 48.171v137.635c0 4.151 3.364 7.515 7.515 7.515s7.515-3.364 7.515-7.515v-140.188c0-1.656-.547-3.265-1.555-4.577l-38.556-50.195c-1.016-1.323-1.575-2.97-1.575-4.636v-85.73c0-4.195 3.413-7.608 7.608-7.608s7.608 3.413 7.608 7.608v80.592c0 1.656.546 3.264 1.555 4.577l29.612 38.553c2.475 3.224 7.066 3.895 10.36 1.515l24.301-17.552c1.956-1.413 3.115-3.679 3.115-6.092v-6.039h15.216v13.772c0 2.435-1.179 4.741-3.154 6.167l-36.204 26.147c-1.956 1.413-3.115 3.679-3.115 6.092v215.127h-15.217v-47.475c0-4.151-3.365-7.515-7.515-7.515s-7.515 3.364-7.515 7.515v47.475h-34.17c-4.15 0-7.515 3.364-7.515 7.515s3.364 7.515 7.515 7.515h413.917c4.15 0 7.515-3.364 7.515-7.515s-3.365-7.515-7.515-7.515h-34.958v-142.723c0-4.151-3.365-7.515-7.515-7.515s-7.515 3.364-7.515 7.515v142.723h-15.215v-217.721c0-1.656-.546-3.265-1.555-4.577l-34.57-45.007h19.186l21.636 28.168c2.476 3.224 7.066 3.895 10.36 1.515l24.301-17.552c1.956-1.413 3.114-3.679 3.114-6.092v-65.413c0-4.195 3.413-7.608 7.608-7.608s7.608 3.413 7.608 7.608v73.146c0 2.435-1.179 4.741-3.154 6.167l-36.204 26.147c-1.957 1.413-3.115 3.679-3.115 6.092v42.345c0 4.151 3.365 7.515 7.515 7.515s7.515-3.364 7.515-7.515v-38.503l33.089-23.897c5.876-4.244 9.384-11.104 9.384-18.351v-13.772h20.538c11.811 0 21.419-9.609 21.419-21.42 0-11.81-9.609-21.419-21.419-21.419zm-449.485 27.81h-19.677c-3.524 0-6.39-2.867-6.39-6.39s2.866-6.389 6.39-6.389h19.677zm314.544-80.525c0-4.195 3.413-7.608 7.608-7.608s7.608 3.413 7.608 7.608v52.715h-15.216zm-215.357 36.18c0-4.195 3.413-7.608 7.608-7.608s7.608 3.413 7.608 7.608v16.535h-15.216zm-15.03 61.571-15.271 11.03-10.159-13.227h25.43zm-36.974-17.226-1.909-2.485v-10.295h94.67c-.184 4.261-.144 8.523.128 12.78zm167.718 282.239c-10.372-.747-23.711-8.3-23.711-24.082 0-11.319 14.723-25.61 23.711-32.892 8.991 7.286 23.712 21.574 23.712 32.892-.001 15.782-13.34 23.336-23.712 24.082zm33.713-4.819c3.281-5.714 5.028-12.272 5.028-19.263 0-23.667-30.903-46.018-34.427-48.488-2.589-1.816-6.039-1.816-8.628 0-3.524 2.471-34.427 24.821-34.427 48.488 0 5.992 1.287 11.665 3.717 16.763-7.423-3.317-14.817-8.101-20.928-15.027-12.7-14.395-17.607-35.299-14.633-62.229l11.6 5.799c4.374 2.19 9.793-.485 10.734-5.272.074-.377 7.724-36.913 53.557-69.249 11.94 9.093 46.289 38.521 45.919 75.784-.052 5.227 5.375 8.98 10.252 7.072l9.656-3.778c.895 12.727.258 36.24-13.627 53.164-5.992 7.305-13.96 12.714-23.793 16.236zm92.586-210.254v215.168h-69.57c4.662-3.346 8.822-7.245 12.465-11.7 24.342-29.772 15.966-72.82 15.598-74.638-.913-4.501-5.82-7.18-10.103-5.505l-9.095 3.558c-6.202-47.095-53.85-79.127-56.023-80.565-2.519-1.667-5.791-1.66-8.306.011-40.358 26.84-55.929 57.512-61.478 72.55l-12.978-6.488c-4.438-2.22-9.925.568-10.766 5.444-6.314 36.627-.653 65.206 16.83 84.939 4.412 4.98 9.289 9.051 14.35 12.393h-75.163v-211.283l33.089-23.897c5.876-4.244 9.384-11.104 9.384-18.351v-13.772h12.658c4.817 22.811 16.876 38.2 31.749 38.2h80.103c14.873 0 26.932-15.389 31.748-38.2h16.082c.673 1.399 1.48 2.732 2.428 3.966zm42.472-49.94-15.271 11.03-10.16-13.227h25.431zm0-17.226h-95.965c.271-4.257.311-8.518.128-12.78h95.837zm65.813 0h-20.538v-12.78h20.538c3.523 0 6.39 2.866 6.39 6.389s-2.867 6.391-6.39 6.391z"/></svg>