<svg id="Capa_1" enable-background="new 0 0 512 512" height="512" viewBox="0 0 512 512" width="512" xmlns="http://www.w3.org/2000/svg"><path d="m387.181 109.909h-39.342v-82.851c0-10.793 8.807-19.543 19.671-19.543 10.864 0 19.671 8.75 19.671 19.543z" fill="#994e37"/><path d="m367.51 7.515c-3.253 0-6.314.798-9.018 2.187 6.324 3.25 10.654 9.795 10.654 17.356v82.851h18.035v-82.851c0-10.794-8.807-19.543-19.671-19.543z" fill="#844131"/><path d="m468.876 237.485c-2.217.763-4.588 1.199-7.066 1.199h-40.602c11.931 0 21.603 9.609 21.603 21.463 0 11.853-9.672 21.462-21.603 21.462h-49.573-151.947-.037c-.001.003-10.753 23.474 33.226 36.436 57.34 16.9 43.346 53.319 25.753 70.236h155.21s-24.552-34.32 8.971-53.336 52.152-44.628 26.087-97.449z" fill="#e0e0e0"/><path d="m347.839 281.609h39.342v106.672h-39.342z" fill="#994e37"/><path d="m369.146 281.609h18.035v106.672h-18.035z" fill="#844131"/><path d="m309.228 13.878c-8.286 2.885-21.792 7.707-37.769 13.86-.036 11.535-5.94 22.509-16.052 28.872l-30.902 19.445c-11.761 7.4-14.052 23.505-4.817 33.854h49.573c-9.235-10.349-6.944-26.453 4.817-33.854l30.902-19.445c12.41-7.809 18.488-22.564 15.15-36.776-1.13-4.814-6.207-7.591-10.902-5.956z" fill="#ffac78"/><path d="m504.485 174.296c0-11.853-9.672-21.462-21.603-21.462h-26.245c11.931 0 21.603-9.609 21.603-21.462 0-11.854-9.672-21.463-21.603-21.463h-49.573c11.931 0 21.603 9.609 21.603 21.463 0 11.853-9.672 21.462-21.603 21.462h26.245c11.931 0 21.603 9.609 21.603 21.462 0 11.854-9.672 21.463-21.603 21.463h-21.073c11.931 0 21.603 9.609 21.603 21.462 0 11.853-9.672 21.462-21.603 21.462h-40.602c11.931 0 21.603 9.609 21.603 21.463 0 11.853-9.672 21.462-21.603 21.462h49.573c11.931 0 21.603-9.609 21.603-21.462 0-11.854-9.672-21.463-21.603-21.463h40.602c11.931 0 21.603-9.609 21.603-21.462 0-11.853-9.672-21.462-21.603-21.462h21.073c11.931 0 21.603-9.609 21.603-21.463z" fill="#ffac78"/><path d="m454.912 174.296c0-11.853-9.672-21.462-21.603-21.462h-26.245c11.931 0 21.602-9.609 21.602-21.462 0-11.854-9.672-21.463-21.602-21.463h-187.376c-9.235-10.349-6.944-26.453 4.817-33.854l30.903-19.445c12.41-7.809 18.488-22.563 15.15-36.776-1.131-4.814-6.208-7.591-10.903-5.956-29.458 10.258-124.9 44.993-162.766 77.011-12.465 10.539-28.167 16.547-44.535 16.547h-44.839v126.017h46.734c9.491 0 18.684 3.712 25.192 10.575 33.561 35.396 140.21 37.582 140.21 37.582h.037 151.947c11.931 0 21.603-9.609 21.603-21.462 0-11.854-9.672-21.463-21.603-21.463h40.602c11.931 0 21.603-9.609 21.603-21.462 0-11.854-9.672-21.463-21.603-21.463h21.073c11.93-.001 21.602-9.61 21.602-21.464z" fill="#ffc597"/><path d="m371.634 263.691h-151.946-.037s-95.58-2.185-129.141-37.581c-6.508-6.864-15.701-10.576-25.192-10.576h-57.803v17.918h46.734c9.491 0 18.684 3.712 25.192 10.575 33.561 35.396 140.21 37.582 140.21 37.582h.037 151.947c11.931 0 21.603-9.609 21.603-21.462 0-3.202-.725-6.23-1.991-8.959-3.42 7.373-10.905 12.503-19.613 12.503z" fill="#ffac78"/><path d="m433.52 220.766h-176.611c-9.961 0-18.035 8.022-18.035 17.918h132.76 40.602c10.713 0 19.58-7.755 21.284-17.918z" fill="#ffac78"/><path d="m392.918 263.691c-1.703 10.162-10.57 17.917-21.281 17.918h49.573c10.712-.001 19.578-7.756 21.281-17.918z" fill="#e4956e"/><path d="m483.093 220.766h-49.573c-1.704 10.163-10.571 17.918-21.284 17.918h8.971 40.602c10.713 0 19.581-7.755 21.284-17.918z" fill="#e4956e"/><path d="m248.684 195.759h163.553 21.073c10.713 0 19.58-7.755 21.284-17.918h-187.875c-9.961 0-18.035 8.022-18.035 17.918z" fill="#ffac78"/><path d="m454.593 177.841c-1.704 10.163-10.571 17.918-21.284 17.918h28.5 21.073c10.713 0 19.58-7.755 21.284-17.918z" fill="#e4956e"/><path d="m257.701 152.834h149.363c10.713 0 19.58-7.755 21.284-17.918h-152.612c-9.96 0-18.035 8.022-18.035 17.918z" fill="#ffac78"/><path d="m407.064 152.834h26.245 23.328c10.713 0 19.58-7.755 21.284-17.918h-49.573c-1.704 10.163-10.571 17.918-21.284 17.918z" fill="#e4956e"/><path d="m329.804 281.609h18.035v106.672h-18.035z" fill="#ccc"/><path d="m468.897 237.496-.021-.011c-2.217.763-4.588 1.199-7.066 1.199h-10.371c25.197 51.879 6.605 68.43-26.664 87.302-33.523 19.016-8.971 62.295-8.971 62.295h18.035s-24.552-34.32 8.971-53.336 52.152-44.628 26.087-97.449z" fill="#ccc"/><ellipse cx="471.23" cy="446.383" fill="#ffeca1" rx="33.256" ry="58.102"/><path d="m437.974 446.383c0-32.089 14.889-58.102 33.255-58.102h-264.894l-52.752-70.405c-5.918-7.899-17.162-9.536-25.113-3.656s-9.598 17.05-3.68 24.95l36.798 49.111h-93.595c-18.367 0-33.256 26.013-33.256 58.102s14.889 58.102 33.256 58.102h403.237c-18.367 0-33.256-26.013-33.256-58.102z" fill="#e8834d"/><path d="m447.223 486.567h-403.237c6.053 11.036 14.567 17.918 24.007 17.918h403.237c-9.44 0-17.954-6.882-24.007-17.918z" fill="#d66e41"/><path d="m471.23 380.766h-33.181c-2.644-4.8-6.867-14.331-4.837-23.402 1.438-6.424 5.791-11.619 13.305-15.883 42.32-24.007 52.408-55.255 32.205-100.695 7.381-5.262 12.204-13.861 12.204-23.565 0-5.182-1.381-10.047-3.785-14.26 14.044-2.057 24.859-14.126 24.859-28.665 0-15.979-13.062-28.977-29.117-28.977h-.732c2.295-4.141 3.604-8.894 3.604-13.948 0-15.978-13.062-28.977-29.117-28.977h-61.942v-75.336c0-14.92-12.196-27.058-27.186-27.058s-27.186 12.138-27.186 27.058v75.337h-67.26c-3.941-6.856-1.649-15.785 5.016-19.979l30.902-19.445c15.112-9.509 22.531-27.534 18.464-44.855-2.122-9.033-11.927-14.383-20.69-11.334-6.895 2.402-17.05 6.019-29.109 10.56-2.497-8.616-11.981-13.512-20.464-10.56-22.535 7.847-79.713 28.615-123.825 51.918-3.67 1.938-5.073 6.485-3.135 10.155 1.937 3.669 6.483 5.074 10.155 3.135 43.206-22.824 99.535-43.28 121.748-51.015.455-.157 1.003.092 1.116.577 2.601 11.073-2.157 22.606-11.837 28.698l-30.902 19.445c-7.489 4.712-12.492 12.424-13.725 21.156-1.23 8.712 1.432 17.483 7.303 24.063 1.426 1.597 3.466 2.511 5.607 2.511h187.377c7.768 0 14.088 6.257 14.088 13.948s-6.32 13.947-14.088 13.947h-149.005c-4.151 0-7.515 3.364-7.515 7.515s3.364 7.515 7.515 7.515h149.005 26.245c7.768 0 14.088 6.257 14.088 13.948s-6.32 13.948-14.088 13.948h-21.072-163.77c-4.151 0-7.515 3.364-7.515 7.515s3.364 7.515 7.515 7.515h163.77c7.768 0 14.088 6.256 14.088 13.947s-6.32 13.948-14.088 13.948h-40.603-132.76c-4.151 0-7.515 3.364-7.515 7.515s3.364 7.515 7.515 7.515h132.76c7.768 0 14.088 6.257 14.088 13.948s-6.32 13.947-14.088 13.947h-151.899c-1.526-.036-27.333-.724-56.585-5.449-38.638-6.243-65.7-16.543-78.257-29.788-7.786-8.21-18.955-12.92-30.645-12.92h-39.22v-110.989h37.324c17.873 0 35.412-6.507 49.387-18.323 3.699-3.126 8.179-6.435 13.316-9.836 3.461-2.29 4.409-6.952 2.118-10.414-2.29-3.46-6.952-4.412-10.414-2.118-5.624 3.722-10.578 7.386-14.724 10.89-11.265 9.525-25.358 14.771-39.683 14.771h-44.838c-4.151 0-7.515 3.364-7.515 7.515v126.017c0 4.151 3.364 7.515 7.515 7.515h46.734c7.584 0 14.779 3 19.739 8.231 29.929 31.566 110.408 38.237 136.992 39.593.078 2.582.537 5.465 1.648 8.529 4.502 12.407 17.329 21.805 38.123 27.934 20.3 5.983 32.459 14.99 35.16 26.047 2.597 10.63-3.62 22.03-10.444 29.466h-65.373l-50.498-67.396c-8.378-11.183-24.345-13.513-35.595-5.192-11.134 8.235-13.544 24.393-5.224 35.497l27.791 37.091h-78.575c-22.862 0-40.771 28.822-40.771 65.616s17.909 65.617 40.771 65.617h117.353c4.151 0 7.515-3.364 7.515-7.515s-3.364-7.515-7.515-7.515h-117.353c-8.275 0-17.187-9.603-22.051-25.111h202.953c4.151 0 7.515-3.364 7.515-7.515s-3.364-7.515-7.515-7.515h-206.066c-.848-7.565-.774-15.248.239-22.793h86.06c4.151 0 7.515-3.364 7.515-7.515s-3.364-7.515-7.515-7.515h-82.563c4.977-14.39 13.496-23.212 21.428-23.212h93.595c6.063 0 9.658-7.158 6.014-12.021l-36.798-49.112c-3.686-4.921-2.112-12.083 3.206-15.097 4.517-2.56 10.441-1.344 13.558 2.815l52.752 70.405c1.419 1.894 3.647 3.009 6.014 3.009h238.656c-4.663 6.236-8.41 14.15-10.933 23.212h-72.269c-4.151 0-7.515 3.364-7.515 7.515s3.364 7.515 7.515 7.515h69.373c-1.257 11.039-.863 22.311 1.337 33.207h-93.188c-4.151 0-7.515 3.364-7.515 7.515s3.364 7.515 7.515 7.515h97.61c2.217 5.551 4.943 10.501 8.08 14.697h-229.595c-4.151 0-7.515 3.364-7.515 7.515s3.364 7.515 7.515 7.515h255.825c22.862 0 40.77-28.823 40.77-65.617s-17.908-65.616-40.77-65.616zm-214.879-289.916c-.551 3.904-.315 7.819.635 11.544h-33.504c-3.938-6.854-1.635-15.789 5.024-19.979l30.902-19.445c10.756-6.768 17.609-17.851 19.203-29.923 13.813-5.259 25.468-9.419 33.087-12.072.455-.158 1.003.092 1.116.577 2.601 11.073-2.157 22.606-11.837 28.698l-30.902 19.445c-7.488 4.712-12.491 12.423-13.724 21.155zm123.315 11.544h-24.313v-75.336c0-6.632 5.453-12.028 12.157-12.028s12.156 5.396 12.156 12.028zm-39.342 278.372h-46.148c5.794-9.589 9.213-21.249 6.334-33.032-4.102-16.792-19.414-29.205-45.511-36.897-18.604-5.483-25.324-12.448-27.685-17.325-.775-1.6-1.129-3.095-1.254-4.388h114.263v91.642zm39.342 0h-24.313v-91.643h24.313zm103.217-220.418c7.768 0 14.088 6.257 14.088 13.948s-6.32 13.948-14.088 13.948h-24.06c4.764-8.596 4.764-19.3 0-27.896zm-49.574-15.029c-.244 0-.488 0-.732 0 4.764-8.596 4.764-19.299 0-27.895h24.06c7.768 0 14.088 6.257 14.088 13.948s-6.32 13.947-14.088 13.947zm4.441 57.955h24.059c7.768 0 14.088 6.256 14.088 13.947s-6.32 13.948-14.088 13.948h-24.059c4.764-8.596 4.764-19.299 0-27.895zm-16.543 42.925c7.768 0 14.088 6.257 14.088 13.948s-6.32 13.947-14.088 13.947h-24.06c4.764-8.596 4.764-19.299 0-27.895zm.265 134.567h-26.776v-91.643h26.512c16.056 0 29.117-12.999 29.117-28.977 0-5.054-1.31-9.807-3.604-13.948 0 0 16.982-.049 17.912-.138 20.173 44.663 4.404 65.367-25.529 82.349-11.298 6.409-18.223 15.085-20.582 25.787-2.171 9.845.113 19.427 2.95 26.57zm49.758 116.205c-15.169 0-25.741-26.66-25.741-50.588 0-23.927 10.572-50.587 25.741-50.587s25.741 26.66 25.741 50.587-10.572 50.588-25.741 50.588z"/><path d="m329.337 434.037c4.151 0 7.515-3.364 7.515-7.515s-3.364-7.515-7.515-7.515h-20.257c-4.151 0-7.515 3.364-7.515 7.515s3.364 7.515 7.515 7.515z"/></svg>