<svg id="Capa_1" enable-background="new 0 0 512 512" height="512" viewBox="0 0 512 512" width="512" xmlns="http://www.w3.org/2000/svg"><path d="m500.035 132.606c8.072-24.928 5.1-50.14-8.832-74.935-32.613-58.042-121.042-49.966-124.791-49.593-8.136.808-14.07 8.051-13.275 16.189.794 8.138 8.052 14.088 16.181 13.311.725-.07 72.934-6.509 96.041 34.614 9.852 17.534 11.97 34.309 6.473 51.283-5.983 18.479-21.151 37.532-45.092 56.672-3.155-.336-6.431-.509-9.83-.509h-191.688l-35.759-69.842c7.119-5.804 11.668-14.641 11.668-24.543 0-17.482-14.172-31.654-31.654-31.654-16.32 0-29.752 12.353-31.465 28.218-10.587-.279-45.923-.498-57.713 8.463-13.933 10.589-11.703 49.6-54.058 57.96s-5.016 91.955 34.553 96.414c39.569 4.458 78.023-5.573 78.023-5.573s29.537 46.814 29.537 75.793v153.536c0 13.389 10.854 24.243 24.243 24.243 13.389 0 24.243-10.854 24.243-24.243v-96.624h200.07v96.624c0 13.389 10.854 24.243 24.243 24.243s24.243-10.854 24.243-24.243v-96.624s28.27-29.388 28.27-89.293c0-41.011-10.765-74.073-34.814-90.85 20.878-19.231 34.703-39.026 41.183-59.037z" fill="#ffaa5c"/><path d="m138.011 81.816c1.043-9.657 6.432-18.006 14.166-23.066-5.673-5.376-13.33-8.68-21.763-8.68-17.482 0-31.654 14.172-31.654 31.654 0 .74.035 1.471.084 2.197 14.617-2.445 32.221-2.288 39.167-2.105z" fill="#e8834d"/><path d="m83.571 245.787c-7.365.052-15.05-.264-22.778-1.135-2.412-.272-4.815-.842-7.193-1.667 1.05 16.454 9.154 60.976 42.051 71.888 32.665 10.835-13.597-24.138-12.08-69.086z" fill="#ffeca1"/><path d="m63.578 263.332c7.411.835 14.789 1.296 22.016 1.481-1.434-6.052-2.246-12.43-2.023-19.026-7.365.052-15.05-.264-22.778-1.135-2.412-.271-4.815-.842-7.193-1.667.292 4.58 1.134 11.337 2.902 18.936 2.347.661 4.708 1.145 7.076 1.411z" fill="#ffdf85"/><g fill="#ff9838"><path d="m183.096 85.252c0 8.618-3.446 16.43-9.033 22.137-1.512 1.545-1.884 3.873-.898 5.797l25.804 50.399c5.045 9.854 15.183 16.053 26.253 16.053l-35.759-69.842c7.918-6.455 12.656-16.661 11.494-27.911-1.503-14.545-13.082-26.307-27.6-28.052-4.523-.544-8.878-.119-12.902 1.076 13.089 3.88 22.641 15.993 22.641 30.343z"/><path d="m500.035 132.606c8.072-24.928 5.1-50.14-8.832-74.935-28.358-50.47-98.907-50.948-119.3-49.969 29.475 1.314 78.713 9.831 101.265 49.969 13.932 24.795 16.904 50.007 8.832 74.935-6.032 18.628-18.43 37.071-36.958 55.045-2.135 2.072-2.016 5.517.258 7.435 20.908 17.627 30.331 49.038 30.331 87.408 0 51.342-20.765 74.371-26.702 79.906-1.008.939-1.568 2.263-1.568 3.64v102.37c0 10.201-6.304 18.924-15.226 22.503 2.731 1.096 5.706 1.715 8.823 1.739 13.441.106 24.437-11.372 24.437-24.813v-96.052s28.27-29.388 28.27-89.293c0-41.011-10.765-74.073-34.814-90.85 20.879-19.232 34.704-39.027 41.184-59.038z"/><path d="m198.803 468.41c0 10.201-6.304 18.924-15.226 22.503 2.788 1.118 5.829 1.74 9.017 1.74 13.389 0 24.243-10.854 24.243-24.243v-96.624c-9.96 0-18.034 8.074-18.034 18.034z"/></g><path d="m89.78 143.919c-7.631 0-13.385 7.331-13.385 17.054s5.754 17.054 13.385 17.054 13.385-7.331 13.385-17.054-5.755-17.054-13.385-17.054z"/><path d="m497.754 53.99c-35-62.292-128.14-53.786-132.084-53.39-12.229 1.214-21.207 12.159-20.012 24.396 1.194 12.232 12.132 21.235 24.368 20.062.677-.066 68.189-5.836 88.783 30.815 8.769 15.605 10.69 30.418 5.875 45.287-5.327 16.452-18.881 33.679-40.305 51.231-2.448-.178-4.948-.268-7.467-.268h-187.096l-31.122-60.784c6.383-7.129 9.951-16.353 9.951-26.087 0-21.598-17.571-39.168-39.168-39.168-5.881 0-11.473 1.298-16.5 3.627-6.569-4.645-14.403-7.155-22.562-7.155-20.258 0-36.973 15.46-38.967 35.202-6.331 1.513-11.857 3.621-15.697 6.54-6.163 4.684-9.503 12.427-13.038 20.624-6.286 14.58-13.413 31.106-37.929 35.945-16.503 3.257-25.519 15.967-24.738 34.871.621 15.002 7.549 32.934 18.531 47.968 8.421 11.527 18.035 19.902 27.949 24.521.86 7.705 3.166 21.626 9.254 35.754 8.414 19.529 21.383 32.677 37.503 38.024 6.041 2.004 14.601 4.655 19.422-1.188 4.866-5.895 1.007-12.778-4.834-23.197-6.145-10.961-15.059-26.87-16.59-44.486 19.428-.762 35.765-3.749 43.914-5.501 7.117 12.126 25.643 45.756 25.643 67.24v23.003c0 4.151 3.364 7.514 7.514 7.514 4.151 0 7.514-3.364 7.514-7.514v-15.488h29.63c4.15 0 7.514-3.364 7.514-7.514s-3.364-7.514-7.514-7.514h-30.145c-1.609-12.441-6.767-26.506-12.378-38.906l27.704-14.027c3.702-1.875 5.185-6.396 3.31-10.098-1.875-3.704-6.398-5.184-10.098-3.31l-27.485 13.917c-5.785-11.169-10.736-19.073-11.234-19.863-1.745-2.766-5.083-4.085-8.248-3.262-.372.097-37.653 9.621-75.287 5.376-19.874-2.238-40.412-30.272-45.434-53.612 8.347-4.217 13.896-12.818 13.896-22.6 0-1.951-.225-3.873-.659-5.74 30.867-6.817 40.223-28.466 47.077-44.36 2.731-6.333 5.31-12.314 8.33-14.611 2.608-1.981 7.752-3.619 14.666-4.815v29.754c0 4.151 3.364 7.514 7.514 7.514s7.514-3.364 7.514-7.514v-31.463c.071-.005.143-.01.214-.014.557-.037 1.124-.07 1.691-.103 7.461-.421 14.386-.421 18.913-.347 2.377.042 4.833.142 6.89-1.253 1.797-1.218 3.003-3.244 3.236-5.4.787-7.286 4.893-13.563 10.894-17.648 3.785-2.443 8.282-3.863 13.1-3.863 13.311 0 24.14 10.829 24.14 24.14 0 7.284-3.245 14.107-8.903 18.718-2.746 2.24-3.556 6.095-1.94 9.249l5.741 11.213-32.189 14.356c-3.542 1.58-5.328 5.751-4.012 9.403 1.461 4.054 6.189 6.081 10.133 4.323l32.927-14.686 9.173 17.915-24.653 10.573c-3.565 1.528-5.409 5.674-4.146 9.344 1.401 4.073 6.104 6.171 10.069 4.468l25.594-10.976 7.122 13.911c1.286 2.511 3.868 4.09 6.689 4.09h23.253v43.554c0 4.15 3.364 7.514 7.514 7.514 4.151 0 7.514-3.364 7.514-7.514v-43.554h44.171v67.715c0 4.15 3.364 7.514 7.514 7.514 4.151 0 7.514-3.364 7.514-7.514v-67.715h44.172v43.554c0 4.15 3.364 7.514 7.514 7.514s7.514-3.364 7.514-7.514v-43.554h35.006c3.084 0 6.124.158 9.036.467 1.969.209 3.941-.367 5.487-1.603 6.11-4.885 11.671-9.781 16.695-14.68l10.471 10.167c-1.571 1.541-3.172 3.079-4.838 4.614-3.479 3.204-3.084 8.986.792 11.69 13.068 9.117 22.289 24.354 27.274 44.753h-51.06c-4.151 0-7.514 3.364-7.514 7.514 0 4.151 3.364 7.514 7.514 7.514h53.84c.595 4.521 1.026 9.231 1.275 14.136.211 4.145 3.763 7.345 7.886 7.123 4.146-.211 7.334-3.742 7.123-7.886-1.819-35.736-12.37-63.091-30.658-79.81 18.351-18.253 30.766-37.138 36.949-56.231 8.748-27.004 5.575-54.233-9.426-80.931zm-401.88 252.967c-11.094-4.445-19.932-14.163-26.291-28.923-3.677-8.535-6.021-17.796-7.321-25.674 4.702.468 9.368.745 13.947.871 1.478 21.266 11.601 39.337 18.554 51.739.36.642.736 1.311 1.111 1.987zm36.012-232.755c-7.397-.057-16.157.16-24.72 1.023 2.844-10.164 12.189-17.641 23.249-17.641 3.306 0 6.526.67 9.495 1.944-3.688 4.237-6.451 9.279-8.024 14.674zm252.065-44.518c-9.208-.161-15.247.403-15.348.413-4.003.384-7.596-2.56-7.987-6.56-.391-4.005 2.542-7.585 6.54-7.982.982-.097 8.106-.752 18.528-.513zm47.852 7.812c-6.601-2.329-13.816-4.164-21.615-5.471-3.859-.646-7.618-1.124-11.205-1.477l1.727-14.586c11.27 1.13 24.171 3.449 36.755 7.971zm13.757 6.056 5.684-13.616c12.99 6.772 24.759 16.53 32.879 30.519l-12.021 8.416c-.067-.12-.125-.239-.192-.359-5.75-10.236-14.66-18.625-26.35-24.96zm47.327 86.739c-4.357 13.453-12.407 26.943-23.974 40.277l-10.48-10.176c9.953-11.587 16.843-23.157 20.548-34.603.34-1.048.643-2.094.931-3.141l14.355 2.913c-.414 1.579-.87 3.155-1.38 4.73zm3.844-19.565-14.446-2.931c.353-8.305-.931-16.61-3.861-25.004l12.352-8.647c4.825 12.175 6.813 24.401 5.955 36.582z"/><path d="m493.478 293.92c-4.116-.434-7.824 2.559-8.261 6.686-.896 8.5-2.395 16.17-4.223 23.03h-37.166c-4.151 0-7.514 3.364-7.514 7.514 0 4.151 3.364 7.514 7.514 7.514h32.223c-7.315 18.457-15.951 27.787-16.071 27.914-1.346 1.399-2.099 3.267-2.099 5.209v16.61h-20.583c-4.151 0-7.514 3.364-7.514 7.514s3.364 7.514 7.514 7.514h20.583v18.595c0 4.151 3.364 7.514 7.514 7.514s7.514-3.364 7.514-7.514v-47.435c6.007-7.346 22.917-31.283 27.253-72.405.436-4.126-2.557-7.825-6.684-8.26z"/><path d="m465.396 444.564c-4.151 0-7.514 3.364-7.514 7.514v16.333c0 9.224-7.505 16.728-16.728 16.728-9.224 0-16.728-7.505-16.728-16.728v-23.847h12.873c4.15 0 7.514-3.364 7.514-7.514s-3.364-7.514-7.514-7.514h-12.873v-57.748c0-3.338-2.295-6.332-5.498-7.238-18.043-5.026-31.37-18.764-39.613-40.833-6.457-17.288-7.188-33.344-7.194-33.503-.167-4.143-3.647-7.359-7.801-7.207-4.147.161-7.377 3.654-7.216 7.801.028.737.785 18.274 7.981 37.759 5.498 14.887 13.294 26.896 23.059 35.708h-43.667v-39.537c0-4.151-3.364-7.514-7.514-7.514-4.151 0-7.514 3.364-7.514 7.514v39.537h-57.024v-39.537c0-4.151-3.364-7.514-7.514-7.514s-7.514 3.364-7.514 7.514v39.537h-40.558c-4.15 0-7.514 3.364-7.514 7.514v57.748h-14.285c-4.15 0-7.514 3.364-7.514 7.514 0 4.151 3.364 7.514 7.514 7.514h14.283v23.847c0 9.224-7.505 16.728-16.728 16.728-9.224 0-16.728-7.505-16.728-16.728v-68.25h13.949c4.15 0 7.514-3.364 7.514-7.514 0-4.151-3.364-7.514-7.514-7.514h-13.949v-19.561c0-4.15-3.364-7.514-7.514-7.514s-7.514 3.364-7.514 7.514v102.84c0 17.511 14.246 31.757 31.757 31.757s31.757-14.246 31.757-31.757v-89.109h185.044v89.109c0 17.511 14.246 31.757 31.757 31.757s31.757-14.246 31.757-31.757v-16.333c-.001-4.153-3.365-7.516-7.515-7.516z"/></svg>