<svg id="Capa_1" enable-background="new 0 0 512 512" height="512" viewBox="0 0 512 512" width="512" xmlns="http://www.w3.org/2000/svg"><path d="m131.008 47.049s66.206-8.826 136.825 30.892c70.619 39.719 140.419 115.948 126.7 198.697s-58.418 101.776-36.29 129.212c22.128 27.435 61.073 21.24 74.793 80.094 0 0-65.499-30.09-109.755-25.665s-90.282 44.251-90.282 44.251-14.604-42.038 28.766-66.818c43.371-24.78 57.09-26.108 56.205-46.463s-26.436-82.188-93.321-103.93c-66.885-21.743-154.031-123.377-93.641-240.27z" fill="#ffaa5c"/><path d="m317.97 391.247c.184 4.224-.273 7.622-1.482 10.587 10.793-6.729 14.721-12.172 14.235-23.341-.885-20.355-26.435-82.188-93.321-103.93-64.551-20.983-147.953-116.38-99.414-228.089-4.499.245-6.98.574-6.98.574-60.39 116.893 26.755 218.526 93.641 240.268 66.885 21.743 92.436 83.576 93.321 103.931z" fill="#ff9838"/><path d="m131.008 47.049c-30.009 58.087-23.58 112.4-1.316 155.021 22.039-1.165 60.44-7.022 95.201-31.453 52.578-36.953 42.94-92.676 42.94-92.676-70.619-39.718-136.825-30.892-136.825-30.892z" fill="#ffeca1"/><path d="m137.988 46.475c-4.498.245-6.98.574-6.98.574-30.009 58.087-23.58 112.4-1.316 155.021 5.413-.286 11.816-.858 18.906-1.916-25.276-41.202-36.02-95.202-10.61-153.679z" fill="#ffdf85"/><path d="m240.852 293.705c-5.11-2.385-10.503-4.535-16.203-6.388-19.599-6.371-40.934-19.61-59.791-38.075.807 18.755 8.607 48.661 41.586 83.799 52.134 55.546 28.617.007 34.408-39.336z" fill="#ffe55a"/><path d="m211.896 300.071c10.287 3.344 19.592 7.639 27.984 12.583-.118-6.39.075-12.863.971-18.949-5.11-2.385-10.503-4.535-16.202-6.388-19.599-6.371-40.934-19.61-59.791-38.075.336 7.812 1.895 17.564 5.972 28.818 13.609 10.166 27.739 17.679 41.066 22.011z" fill="#ffd91d"/><path d="m368.123 168.944c28.865-4.925 57.146-.098 57.146-.098-81.189-119.942-157.436-90.905-157.436-90.905 37.946 21.343 75.648 53.23 100.29 91.003z" fill="#ffe55a"/><path d="m267.833 77.942c37.946 21.342 75.648 53.23 100.29 91.002 6.577-1.122 13.118-1.734 19.307-2.016-20.943-36.817-54.7-68.735-90.354-91.781-18.177-1.41-29.243 2.795-29.243 2.795z" fill="#ffd91d"/><path d="m269.82 170.843c-2.962-6.911-16.765-11.397-28.725-14.054-4.608 4.79-9.962 9.442-16.202 13.827-4.801 3.374-9.672 6.383-14.56 9.085 2.358 12.85 7.152 31.722 15.377 35.246 12.689 5.438 30.975-13.133 30.975-13.133s18.573-18.283 13.135-30.971z" fill="#ffe55a"/><path d="m238.463 202.194c-7.341-3.146-11.948-18.518-14.53-30.922-4.491 3.105-9.037 5.907-13.6 8.43 2.358 12.849 7.152 31.721 15.377 35.246 12.689 5.438 30.975-13.133 30.975-13.133s2.795-2.757 5.898-6.864c-6.483 4.899-16.348 10.573-24.12 7.243z" fill="#ffd91d"/><path d="m13.312 498.635c-7.729-7.728-7.729-20.26 0-27.988l227.549-227.522c7.727-7.726 20.253-7.726 27.98 0 7.729 7.728 7.729 20.26 0 27.988l-227.549 227.522c-7.727 7.726-20.253 7.726-27.98 0z" fill="#994e37"/><path d="m401.905 138.066 82.936-82.926 19.644-47.625-47.63 19.642-82.925 82.915c9.073 7.641 18.438 16.874 27.975 27.994z" fill="#994e37"/><path d="m256.088 258.359-227.549 227.522c-5.428 5.427-13.22 7.026-20.058 4.828.931 2.897 2.53 5.626 4.83 7.926 7.727 7.726 20.253 7.726 27.98 0l227.549-227.522c7.729-7.728 7.729-20.26 0-27.988-2.299-2.299-5.027-3.897-7.923-4.828 2.2 6.839.601 14.634-4.829 20.062z" fill="#844131"/><path d="m472.088 42.386-82.383 82.373c4.03 4.109 8.098 8.523 12.2 13.307l82.936-82.926 19.644-47.625-21.706 8.951z" fill="#844131"/><path d="m389.691 420.063c-9.63-5.353-18.726-10.409-25.599-18.931-7.972-9.883-4.737-16.953 6.691-37.813 10.285-18.775 24.371-44.487 31.164-85.451 1.923-11.595 2.339-23.476 1.235-35.312-.386-4.133-4.064-7.172-8.18-6.785-4.132.386-7.17 4.048-6.785 8.181.984 10.551.615 21.135-1.098 31.458-6.373 38.443-19.75 62.86-29.517 80.688-11.106 20.271-19.877 36.283-5.208 54.471 8.711 10.8 19.531 16.815 29.995 22.632 15.223 8.463 29.737 16.531 38.804 39.637-22.459-8.806-65.614-23.345-98.659-20.036-3.261.326-6.642.843-10.047 1.536-4.067.828-6.693 4.796-5.865 8.863s4.795 6.697 8.863 5.865c2.91-.592 5.784-1.032 8.543-1.308 41.672-4.169 105.234 24.725 105.872 25.017 5.576 2.56 11.843-2.581 10.453-8.536-9.643-41.374-31.436-53.488-50.662-64.176z"/><path d="m190.297 93.992h-9.451v-9.448c0-4.15-3.364-7.515-7.515-7.515s-7.515 3.365-7.515 7.515v9.448h-9.451c-4.151 0-7.515 3.365-7.515 7.515 0 4.151 3.364 7.515 7.515 7.515h9.451v9.448c0 4.151 3.364 7.515 7.515 7.515s7.515-3.365 7.515-7.515v-9.448h9.451c4.151 0 7.515-3.365 7.515-7.515s-3.364-7.515-7.515-7.515z"/><path d="m509.799 2.202c-2.145-2.146-5.371-2.791-8.179-1.634l-47.63 19.642c-.916.378-1.748.933-2.448 1.633l-78.057 78.048c-17.885-14.086-36.406-23.697-55.457-28.741-24.146-6.393-42.06-3.227-49.329-1.316-70.893-38.705-135.917-30.604-138.684-30.234-2.434.324-4.556 1.818-5.683 3.999-32.288 62.496-21.716 115.877-7.163 149.653 9.387 21.786 23.451 42.208 40.365 59.301 1.178 15.646 6.337 31.725 15.352 47.911l-90.906 90.896c-2.935 2.935-2.935 7.693-.001 10.628 2.935 2.935 7.694 2.936 10.627.001l153.568-153.55c4.785-4.784 12.57-4.784 17.354 0 4.732 4.732 4.732 12.627 0 17.359l-227.549 227.522c-4.785 4.784-12.569 4.784-17.354 0-4.732-4.732-4.732-12.627 0-17.359l52.724-52.718c2.935-2.935 2.935-7.693.001-10.628s-7.693-2.936-10.627-.001l-52.725 52.718c-5.157 5.157-7.998 12.014-7.998 19.309 0 7.294 2.841 14.151 7.998 19.309 5.323 5.322 12.312 7.983 19.303 7.982 6.99-.001 13.982-2.661 19.303-7.982l159.954-159.935c13.78 14.031 22.445 20.003 29.346 20.003 1.634 0 3.17-.335 4.652-.976 9.5-4.113 8.705-16.82 7.606-34.408-.454-7.253-.945-15.288-.734-23.036 45.653 26.158 62.44 72.296 63.033 85.976.456 10.467-2.677 12.765-27.486 25.961-6.761 3.597-15.177 8.073-24.938 13.65-25.083 14.332-32.536 34.154-34.371 48.258-1.977 15.193 2.062 27.055 2.234 27.553 1.711 4.923 8.064 6.637 12.016 3.217.224-.194 22.725-19.531 50.726-32.161 3.783-1.707 5.467-6.158 3.76-9.941-1.707-3.784-6.158-5.466-9.94-3.76-18.505 8.348-34.511 19.21-44.283 26.502-.677-12.443 2.706-32.556 27.314-46.615 9.564-5.465 17.52-9.697 24.54-13.43 24.194-12.869 36.339-19.329 35.444-39.885-.418-9.61-5.552-28.107-18.65-48.61-9.204-14.409-25.076-33.843-49.943-48.616l17.27-17.268c7.764-7.763 10.124-19.999 5.794-30.091-1.363-3.178-3.35-6.082-5.794-8.526-10.646-10.644-27.965-10.642-38.607 0l-31.816 31.813c-24.472-14.072-46.352-35.854-61.717-61.045 16.784-1.897 39.693-6.561 63.008-17.706 6.346 26.089 14.759 29.712 17.728 30.984 8.742 3.745 18.292.376 25.951-4.288 9.236-5.623 17.057-13.322 22.909-22.413 6.695-10.399 8.416-19.575 5.116-27.272-2.733-6.377-9.899-11.332-22.195-15.279 10.944-14.381 16.295-29.017 18.88-40.537 1.747-7.785 2.416-14.824 2.582-20.543 22.326 13.911 42.941 30.692 60.172 49.071 22.669 24.179 38.271 49.57 46.373 75.468 1.239 3.961 5.453 6.169 9.416 4.929 3.961-1.239 6.167-5.455 4.929-9.416-3.854-12.32-9.368-24.607-16.312-36.654 22.984-2.047 43.204 1.292 43.433 1.332 6.382 1.095 11.121-6.25 7.487-11.621-6.349-9.38-12.815-18.089-19.389-26.136l78.051-78.042c.701-.701 1.256-1.532 1.634-2.449l19.644-47.625c1.159-2.808.514-6.035-1.632-8.181zm-276.173 345.607c-2.622-1.609-7.59-5.433-16.434-14.426l15.339-15.337c.162 3.97.402 7.846.632 11.527.379 6.073.868 13.9.463 18.236zm-49.635-58.448c-3.846-7.487-6.477-14.394-8.25-20.577 5.495 4.299 11.182 8.256 17.02 11.808zm78.922-115.556c2.211 5.16-5.261 16.476-11.499 22.654-.022.022-.052.052-.074.074-6.187 6.246-17.507 13.719-22.669 11.507-1.523-.653-6.025-6.373-9.913-24.506 8.849-5.265 17.247-11.31 24.671-18.467 14.353 3.633 18.942 7.473 19.484 8.738zm-4.303-64.426c-5.201 22.47-17.998 41.004-38.038 55.089-31.218 21.942-65.872 28.132-86.415 29.771-1.117-2.293-2.181-4.605-3.185-6.935-12.986-30.139-22.464-77.46 4.871-133.15 14.56-1.017 68.223-2.206 124.949 28.489.372 4.978.558 14.897-2.182 26.736zm113.086 51.421c-19.918-29.225-48.219-56.439-82.023-78.408 7.023-.008 15.712.85 25.637 3.594 39.498 10.915 71.823 43.737 94.18 73.638-10.098-.634-23.658-.761-37.794 1.176zm106.77-109.913-76.186 76.177c-5.692-6.293-11.461-12.097-17.302-17.412l76.129-76.119 29.542-12.183z"/></svg>
