<svg id="Capa_1" enable-background="new 0 0 512 512" height="512" viewBox="0 0 512 512" width="512" xmlns="http://www.w3.org/2000/svg"><path d="m463.639 229.547-44.932-14.487-31.316-173.461-92.586-34.084-133.433 72.259h-77.609l-21.785 247.573-36.762 25.077-17.701 152.061h496.971z" fill="#e0e0e0"/><path d="m463.639 229.547-44.932-14.488-31.316-173.46-19.293-7.102 33.782 190.793c.321 1.814 1.624 3.304 3.388 3.872l39.113 12.611c1.809.583 3.13 2.134 3.409 4.004l38.66 258.707h18.035z" fill="#ccc"/><path d="m126.845 332.27-16.523 51.01 43.667-9.967 4.131 27.557 96.185-9.968-3.54-53.355h-75.532l-17.703-12.899z" fill="#e8834d"/><path d="m236.393 392.759 17.912-1.857-3.54-53.355h-18.036z" fill="#d66e41"/><path d="m290.435 132.129-15.378 30.747v52.409h-44.664v-52.409l-15.378-30.747z" fill="#e8834d"/><path d="m272.4 132.129-15.378 30.747v52.409h18.035v-52.409l15.378-30.747z" fill="#d66e41"/><path d="m74.197 188.482c.224.02.446.029.667.029 3.852 0 7.133-2.946 7.477-6.857l8.304-94.366h70.727c1.249 0 2.479-.312 3.578-.907l130.447-70.641 85.363 31.426 4.841 26.814c.737 4.085 4.649 6.798 8.73 6.06 4.084-.737 6.797-4.646 6.06-8.73l-5.605-31.045c-.474-2.621-2.299-4.796-4.799-5.717l-92.586-34.085c-2.027-.747-4.276-.585-6.174.444l-131.759 71.352h-75.705c-3.895 0-7.144 2.976-7.486 6.856l-8.907 101.223c-.364 4.134 2.693 7.78 6.827 8.144z"/><path d="m511.919 503.381-16.631-111.938c-.61-4.106-4.437-6.94-8.537-6.329-4.105.61-6.939 4.432-6.329 8.537l15.35 103.319h-479.817l16.329-140.27 33.929-23.145c1.861-1.269 3.053-3.306 3.251-5.549l10.242-116.388c.364-4.134-2.693-7.78-6.827-8.144-4.131-.357-7.781 2.692-8.144 6.827l-9.93 112.843-33.823 23.073c-1.799 1.227-2.977 3.176-3.229 5.339l-17.702 152.06c-.512 4.4 3.038 8.384 7.464 8.384h496.97c4.519 0 8.099-4.146 7.434-8.619z"/><path d="m396.999 94.817c-4.084.738-6.797 4.646-6.06 8.73l20.373 112.847c.493 2.73 2.449 4.966 5.089 5.817l40.49 13.056 19.106 128.595c.554 3.731 3.762 6.411 7.424 6.411.367 0 .739-.027 1.113-.083 4.105-.61 6.939-4.432 6.329-8.537l-19.791-133.211c-.42-2.827-2.407-5.171-5.127-6.048l-40.643-13.105-19.572-108.413c-.738-4.083-4.649-6.794-8.731-6.059z"/><path d="m284.987 374.378c6.848 0 10.07-8.787 4.892-13.222l-34.226-29.316c-1.346-1.152-3.117-1.807-4.888-1.807h-73.085l-10.404-7.581 12.789-23.531c1.981-3.647.632-8.209-3.014-10.191-3.648-1.981-8.209-.631-10.191 3.014l-14.353 26.409-22.13 5.497-13.646-22.276c-2.168-3.539-6.795-4.65-10.334-2.482s-4.65 6.794-2.482 10.334l14.715 24.021-15.456 47.719c-1.762 5.443 3.241 10.918 8.821 9.642l35.765-8.164 2.92 19.479 3.539 25.205c.577 4.108 4.529 7.031 8.626 6.375 3.989-.64 6.82-4.459 6.258-8.465l-2.457-17.496 80.627-8.355 1.166 19.496c.239 3.99 3.549 7.066 7.495 7.066.151 0 .303-.004.456-.013 4.143-.248 7.3-3.807 7.053-7.95l-1.635-27.331c0-.006-.003-.011-.003-.016-.001-.011 0-.022-.001-.033l-2.357-35.527 20.656 17.693c1.415 1.212 3.154 1.806 4.884 1.806zm-120.5 18.277-3.067-20.456c-.638-4.258-4.897-7.172-9.104-6.212l-30.769 7.023 11.16-34.453 23.231-5.771 14.869 10.834c1.285.937 2.835 1.441 4.425 1.441h68.499l2.595 39.113z"/><path d="m296.828 128.179c-1.369-2.216-3.788-3.564-6.392-3.564h-75.42c-5.482 0-9.177 5.964-6.721 10.876l14.584 29.159v50.635 26.817c0 4.15 3.364 7.515 7.515 7.515 4.15 0 7.515-3.364 7.515-7.515v-19.302h29.659v19.302c0 4.15 3.364 7.515 7.515 7.515 4.15 0 7.515-3.364 7.515-7.515v-26.817c0-.157-.014-.311-.023-.465v-50.17l14.585-29.159c1.161-2.329 1.037-5.096-.332-7.312zm-29.286 79.592h-29.635v-44.895c0-1.167-.272-2.318-.794-3.362l-9.938-19.87h51.099l-9.938 19.87c-.523 1.044-.794 2.195-.794 3.362z"/><path d="m311.38 291.2c-2.678-3.17-7.418-3.57-10.59-.893-3.171 2.678-3.571 7.419-.893 10.59l11.326 13.413c2.855 3.381 8.174 3.524 11.213.304 2.588-2.742 2.701-7.122.27-10.001z"/><path d="m331.112 294.344c4.042.658 7.966-2.17 8.623-6.211l4.923-30.278c.666-4.096-2.115-7.957-6.211-8.623-4.091-.668-7.957 2.115-8.623 6.211l-4.923 30.278c-.666 4.096 2.115 7.957 6.211 8.623z"/><path d="m373.832 251.137c-3.672-1.932-8.216-.522-10.15 3.151l-18.127 34.446c-1.932 3.673-.522 8.217 3.151 10.15 1.116.587 2.313.866 3.493.866 2.701 0 5.311-1.46 6.656-4.017l18.127-34.446c1.934-3.673.523-8.217-3.15-10.15z"/><path d="m369.92 310.04c1.707 0 3.425-.579 4.834-1.765l22.025-18.531c3.176-2.672 3.584-7.412.912-10.588-2.671-3.175-7.412-3.584-10.588-.912l-22.025 18.531c-5.241 4.41-2.039 13.265 4.842 13.265z"/><path d="m374.926 328.194c1.108 0 2.233-.246 3.295-.765l21.379-10.451c3.729-1.822 5.273-6.323 3.451-10.051-1.822-3.729-6.324-5.275-10.051-3.451l-21.379 10.451c-2.987 1.46-4.69 4.823-4.094 8.094.644 3.533 3.809 6.173 7.399 6.173z"/><path d="m343.381 341.573c4.296 0 9.218-1.101 14.522-4.239 3.571-2.113 4.754-6.722 2.64-10.294-2.112-3.57-6.72-4.754-10.294-2.64-.802.475-8.009 4.508-13.631-.155l.098.086-.01.012c-1.357-1.336-3.216-2.162-5.271-2.162-4.15 0-7.515 3.364-7.515 7.515 0 2.354 1.084 4.453 2.778 5.831l-.004.005c.389.345 6.914 6.041 16.687 6.041z"/></svg>
