<svg id="Capa_1" enable-background="new 0 0 512.001 512.001" height="512" viewBox="0 0 512.001 512.001" width="512" xmlns="http://www.w3.org/2000/svg"><path d="m256 56.923c-74.613 73.707-203.379 227.733-248.485 447.563h496.971c-45.107-219.83-173.872-373.856-248.486-447.563z" fill="#ffaa5c"/><path d="m352.535 504.486s-39.796-160.424-96.535-160.424-96.535 160.424-96.535 160.424z" fill="#994e37"/><path d="m256 344.061c-3.056 0-6.063.468-9.018 1.349 51.893 15.471 87.518 159.076 87.518 159.076h18.035c.001 0-39.796-160.425-96.535-160.425z" fill="#844131"/><path d="m256 56.923c-3.237 3.197-6.581 6.556-10.01 10.054 75.623 77.149 195.325 227.215 238.475 437.509h20.02c-45.106-219.83-173.871-373.856-248.485-447.563z" fill="#ff9838"/><path d="m135.151 203.574c30.511 11.757 60.024-38.696 77.319-36.712 18.841 2.161 22.457 44.238 43.53 44.238 21.072 0 24.688-42.078 43.53-44.238 17.295-1.983 46.809 48.47 77.319 36.712-42.883-64.218-87.329-113.539-120.849-146.651-33.52 33.112-77.965 82.433-120.849 146.651z" fill="#ffeca1"/><path d="m356.726 203.43c6.576 2.29 13.324 2.764 20.123.144-42.883-64.218-87.329-113.539-120.849-146.651-3.238 3.199-6.581 6.553-10.011 10.053 32.056 32.703 72.027 78.51 110.737 136.454z" fill="#ffdf85"/><path d="m511.847 502.976c-8.675-42.281-20.957-84.498-36.501-125.478-1.473-3.881-5.813-5.832-9.692-4.361-3.881 1.472-5.833 5.811-4.361 9.692 14.155 37.314 25.551 75.668 33.924 114.143h-136.879c-3.383-12.556-12.378-43.866-25.877-75.636-23.906-56.261-49.631-84.788-76.461-84.788-11.681 0-23.261 5.436-34.421 16.158-8.907 8.558-17.777 20.726-26.362 36.166-6.983 12.559-13.874 27.434-20.482 44.214-1.521 3.862.377 8.225 4.239 9.746 3.861 1.52 8.225-.377 9.746-4.239 6.365-16.165 12.971-30.436 19.632-42.416 16.224-29.177 32.7-44.599 47.648-44.599 19.64 0 41.859 26.808 62.565 75.487 11.803 27.747 20.236 55.806 24.175 69.908h-173.484c2.01-7.206 5.188-18.04 9.378-30.571 1.316-3.936-.807-8.194-4.744-9.51-3.935-1.316-8.193.807-9.51 4.744-5.202 15.556-8.831 28.359-10.716 35.338h-136.88c15.627-71.836 41.578-142.357 77.201-209.757 13.467-25.481 28.315-50.497 44.415-74.919 20.118 3.893 38.252-11.607 53.08-24.292 6.56-5.611 16.47-14.101 20.134-13.675 5.128.588 9.845 9.251 14.407 17.63 6.803 12.495 14.514 26.657 29.979 26.657 15.466 0 23.176-14.162 29.978-26.657 4.562-8.379 9.279-17.042 14.407-17.63 3.668-.424 13.573 8.062 20.135 13.675 13.243 11.33 29.119 24.914 46.697 24.912 2.079 0 4.183-.194 6.308-.601 27.106 41.11 54.03 88.99 76.711 142.877 1.695 4.027 6.615 5.764 10.473 3.709 3.38-1.8 4.864-6.014 3.38-9.54-48.596-115.462-116.305-203.817-164.548-257.605-11.637-12.975-22.673-24.57-32.827-34.784 29.18-28.296 48.827-43.245 49.115-43.462 3.311-2.5 3.971-7.211 1.472-10.524-2.5-3.313-7.212-3.972-10.525-1.473-1.208.911-21.13 16.051-50.78 44.862-29.67-28.829-49.594-43.974-50.771-44.862-3.313-2.5-8.025-1.84-10.525 1.473-2.499 3.313-1.84 8.025 1.473 10.525.28.211 19.908 15.126 49.115 43.453-11.388 11.456-23.887 24.653-37.092 39.577-2.497 2.821-2.486 7.203.038 10.004 2.962 3.287 8.283 3.272 11.217-.044 12.964-14.652 25.299-27.655 36.553-38.958 10.027 10.072 20.914 21.5 32.348 34.247 22.172 24.72 48.52 56.86 75.175 95.657-11.127-1.964-22.714-11.867-33.237-20.869-11.512-9.848-21.458-18.351-31.617-17.186-12.884 1.477-19.796 14.173-25.894 25.375-6.188 11.365-10.699 18.815-16.779 18.815-6.081 0-10.592-7.45-16.779-18.815-6.099-11.202-13.011-23.897-25.894-25.375-10.158-1.172-20.106 7.339-31.616 17.186-10.557 9.031-22.178 18.967-33.34 20.885 16.083-23.403 33.329-46.218 51.665-68.308 2.651-3.193 2.211-7.931-.982-10.582-3.195-2.652-7.931-2.211-10.582.983-41.786 50.34-78.046 104.384-107.774 160.631-37.78 71.483-64.879 146.438-80.544 222.787-.454 2.212.111 4.51 1.538 6.26s3.566 2.765 5.823 2.765h496.971c2.258 0 4.396-1.015 5.823-2.765s1.992-4.049 1.538-6.26z"/><path d="m83.67 396.278-12.201 28.966c-1.487 3.531.002 7.732 3.378 9.54 3.854 2.065 8.781.313 10.474-3.707l12.201-28.966c1.611-3.824-.184-8.231-4.009-9.842-3.824-1.609-8.232.185-9.843 4.009z"/><path d="m144.133 420.683c3.82 1.483 8.243-.469 9.725-4.286l8.211-21.152c1.502-3.869-.417-8.223-4.286-9.725-3.872-1.502-8.223.417-9.725 4.286l-8.211 21.152c-1.501 3.869.417 8.223 4.286 9.725z"/><path d="m122.789 368.324c3.719 1.726 8.256.063 9.981-3.65l10.804-23.263c1.748-3.764.114-8.233-3.65-9.981-3.764-1.746-8.232-.114-9.981 3.65l-10.804 23.263c-1.748 3.765-.114 8.233 3.65 9.981z"/><path d="m122.127 300.68c3.661 1.843 8.251.32 10.09-3.336l11.704-23.263c1.865-3.708.372-8.225-3.336-10.09-3.708-1.867-8.226-.372-10.09 3.336l-11.704 23.263c-1.865 3.708-.371 8.226 3.336 10.09z"/><path d="m191.998 280.776c-3.834-1.585-8.23.236-9.816 4.072l-11.104 26.842c-1.464 3.541.051 7.731 3.439 9.518 3.866 2.04 8.782.257 10.45-3.774l11.104-26.842c1.585-3.834-.238-8.229-4.073-9.816z"/><path d="m234.855 267.745-10.411 24.297c-1.528 3.566-.006 7.839 3.44 9.627 3.829 1.987 8.677.256 10.374-3.707l10.411-24.297c1.635-3.815-.133-8.232-3.947-9.867s-8.233.132-9.867 3.947z"/><path d="m203.721 215.077c-3.64-1.993-8.207-.656-10.199 2.985l-10.873 19.869c-1.84 3.361-.786 7.691 2.388 9.835 3.621 2.445 8.703 1.206 10.796-2.62l10.873-19.869c1.992-3.642.656-8.208-2.985-10.2z"/><path d="m436.644 410.314c-3.825 1.611-5.619 6.018-4.009 9.842l12.201 28.965c1.21 2.873 3.996 4.6 6.928 4.6.973 0 1.962-.19 2.914-.591 3.825-1.612 5.619-6.018 4.009-9.842l-12.201-28.965c-1.611-3.826-6.019-5.621-9.842-4.009z"/><path d="m372.373 403.564c-3.869 1.502-5.788 5.856-4.286 9.725l8.211 21.152c1.56 4.019 6.344 5.917 10.239 4.064 3.505-1.668 5.174-5.887 3.77-9.503l-8.211-21.152c-1.501-3.869-5.856-5.789-9.723-4.286z"/><path d="m404.207 387.069c5.412 0 9.079-5.797 6.81-10.682l-10.804-23.263c-1.747-3.764-6.214-5.397-9.98-3.65-3.764 1.748-5.398 6.217-3.65 9.981l10.804 23.263c1.272 2.739 3.985 4.351 6.82 4.351z"/><path d="m411.365 308.634-11.704-23.263c-1.866-3.707-6.383-5.2-10.091-3.335-3.707 1.866-5.201 6.383-3.336 10.09l11.704 23.263c1.964 3.902 6.991 5.302 10.7 2.991 3.251-2.025 4.446-6.329 2.727-9.746z"/><path d="m345.19 335.479c1.67 4.037 6.58 5.805 10.45 3.774 3.391-1.78 4.9-5.984 3.438-9.518l-11.104-26.842c-1.586-3.835-5.983-5.659-9.817-4.072-3.835 1.587-5.658 5.982-4.072 9.816z"/><path d="m284.641 270.05c-3.744 1.793-5.324 6.281-3.53 10.024l11.424 23.843c1.863 3.888 6.777 5.415 10.52 3.269 3.368-1.93 4.71-6.264 3.033-9.763l-11.424-23.844c-1.793-3.743-6.283-5.323-10.023-3.529z"/><path d="m340.922 267.098c5.621 0 9.27-6.217 6.585-11.123l-10.873-19.869c-1.993-3.641-6.56-4.976-10.2-2.985-3.641 1.993-4.977 6.559-2.984 10.2l10.873 19.869c1.366 2.495 3.941 3.908 6.599 3.908z"/></svg>
